#!OML:ASF H:\ManfredETheater\Project 1\Capture day 1\Session 1\subject.ASF
:FULLY-SPECIFIED
:DEGREES
288
root 1.10873 17.2585 -18.7621 -161.65 0.588264 -180.304
lowerback 4.58892 -0.0458367 1.01946
upperback -3.37865 0.2762 2.4683
thorax -6.09927 0.204652 1.96626
lowerneck -14.3559 -1.30084 -1.91239
upperneck 5.7206 -1.41595 0.898169
head 4.04564 -0.669541 0.479132
rclavicle 3.97569e-015 4.29375e-014
rhumerus -41.972 4.92758 -89.3598
rradius 52.6438
rwrist -1.86872
rhand -20.35 -4.82316
rfingers 7.12502
rthumb 6.00188 -34.7181
lclavicle 3.97569e-015 4.29375e-014
lhumerus -42.0688 -6.17837 97.0988
lradius 52.0306
lwrist -1.62255
lhand -16.2982 2.34995
lfingers 7.12502
lthumb 9.9125 32.0966
rfemur -15.706 -4.1085 23.0176
rtibia 34.7805
rfoot -29.6804 -8.90166
rtoes -35.7791
lfemur -23.4593 -2.92633 -22.2784
ltibia 48.9001
lfoot -28.4081 2.1161
ltoes -7.59504
289
root 1.09861 17.2359 -18.866 -161.606 0.59062 -180.393
lowerback 4.62997 -0.0432816 1.07356
upperback -3.34826 0.281608 2.45846
thorax -6.09064 0.203979 1.92498
lowerneck -14.2081 -1.25791 -1.86592
upperneck 5.62746 -1.36018 0.796576
head 3.99159 -0.646995 0.445485
rclavicle 2.5842e-015 -2.22639e-014
rhumerus -42.3725 5.11343 -89.3081
rradius 53.3355
rwrist -1.97126
rhand -20.3639 -4.53067
rfingers 7.12502
rthumb 5.98853 -34.426
lclavicle 2.5842e-015 -2.22639e-014
lhumerus -42.5549 -6.29205 97.2764
lradius 53.0064
lwrist -1.34176
lhand -16.4887 2.2944
lfingers 7.12502
lthumb 9.72865 32.0497
rfemur -15.6486 -4.25217 22.8254
rtibia 35.3666
rfoot -29.7338 -8.64403
rtoes -36.2449
lfemur -23.275 -3.08163 -22.3763
ltibia 49.182
lfoot -28.2956 1.93699
ltoes -8.26736
290
root 1.08801 17.2128 -18.9725 -161.559 0.582701 -180.517
lowerback 4.66213 -0.0507466 1.09219
upperback -3.32237 0.26952 2.43764
thorax -6.0812 0.195606 1.89394
lowerneck -14.0396 -1.20964 -1.8147
upperneck 5.19267 -1.29676 0.669792
head 4.28308 -0.624406 0.452196
rclavicle 3.57812e-015 -4.6118e-014
rhumerus -42.7727 5.21876 -89.2223
rradius 53.9897
rwrist -2.10555
rhand -20.4187 -4.27739
rfingers 7.12502
rthumb 5.93558 -34.1742
lclavicle 3.57812e-015 -4.6118e-014
lhumerus -43.0468 -6.40815 97.4556
lradius 54.0148
lwrist -1.02846
lhand -16.6727 2.27612
lfingers 7.12502
lthumb 9.55111 32.0396
rfemur -15.6648 -4.4133 22.5902
rtibia 36.1014
rfoot -29.7335 -8.33664
rtoes -36.743
lfemur -23.0651 -3.25335 -22.5105
ltibia 49.4219
lfoot -28.1708 1.75372
ltoes -8.98178
291
root 1.07688 17.1891 -19.0813 -161.506 0.567136 -180.672
lowerback 4.68561 -0.0673519 1.08095
upperback -3.29899 0.241707 2.40831
thorax -6.06905 0.180259 1.87238
lowerneck -13.9056 -1.15932 -1.76142
upperneck 5.14541 -1.23571 0.595121
head 4.23662 -0.597481 0.422514
rclavicle 7.35503e-015 4.77083e-015
rhumerus -43.168 5.24807 -89.1015
rradius 54.604
rwrist -2.28735
rhand -20.4938 -4.11045
rfingers 7.12502
rthumb 5.8631 -34.0093
lclavicle 7.35503e-015 4.77083e-015
lhumerus -43.5381 -6.52795 97.6381
lradius 55.0511
lwrist -0.68078
lhand -16.839 2.29908
lfingers 7.12502
lthumb 9.39069 32.0699
rfemur -15.7692 -4.5916 22.316
rtibia 37.0059
rfoot -29.6701 -7.96217
rtoes -37.2689
lfemur -22.8331 -3.43301 -22.677
ltibia 49.6235
lfoot -28.0385 1.57299
ltoes -9.75822
292
root 1.0651 17.1648 -19.1924 -161.448 0.547911 -180.852
lowerback 4.70207 -0.0924847 1.04343
upperback -3.27668 0.199308 2.37111
thorax -6.05364 0.158357 1.85883
lowerneck -13.7898 -1.10515 -1.70455
upperneck 5.11839 -1.1709 0.529386
head 4.20136 -0.568254 0.395442
rclavicle 2.38542e-015 3.57812e-014
rhumerus -43.553 5.20145 -88.9463
rradius 55.1709
rwrist -2.51306
rhand -20.5871 -4.03586
rfingers 7.12502
rthumb 5.77302 -33.9372
lclavicle 2.38542e-015 3.57812e-014
lhumerus -44.0273 -6.65092 97.8225
lradius 56.1147
lwrist -0.304867
lhand -16.978 2.36577
lfingers 7.12502
lthumb 9.2566 32.1426
rfemur -15.9752 -4.7876 22.0026
rtibia 38.1029
rfoot -29.5416 -7.49281
rtoes -37.8243
lfemur -22.5801 -3.61218 -22.8744
ltibia 49.7907
lfoot -27.9037 1.39719
ltoes -10.6108
293
root 1.05278 17.1399 -19.3052 -161.386 0.526809 -181.052
lowerback 4.71781 -0.126006 0.984007
upperback -3.25756 0.143485 2.32895
thorax -6.04085 0.130472 1.85377
lowerneck -13.6778 -1.04574 -1.64696
upperneck 5.10346 -1.10013 0.472156
head 4.1714 -0.535741 0.371553
rclavicle 1.59028e-015 4.13472e-014
rhumerus -43.9324 5.08483 -88.7569
rradius 55.6922
rwrist -2.78205
rhand -20.6886 -4.07291
rfingers 7.12502
rthumb 5.67502 -33.9769
lclavicle 1.59028e-015 4.13472e-014
lhumerus -44.514 -6.77714 98.0114
lradius 57.1987
lwrist 0.0908845
lhand -17.1028 2.43839
lfingers 7.12502
lthumb 9.13613 32.2205
rfemur -16.2973 -4.99175 21.6555
rtibia 39.414
rfoot -29.3334 -6.91207
rtoes -38.4012
lfemur -22.31 -3.78167 -23.0962
ltibia 49.9286
lfoot -27.7666 1.21443
ltoes -11.4679
294
root 1.03989 17.1145 -19.4196 -161.319 0.509048 -181.264
lowerback 4.7388 -0.165797 0.906108
upperback -3.24 0.0776558 2.28444
thorax -6.03243 0.0982427 1.85773
lowerneck -13.5865 -0.980463 -1.59319
upperneck 5.10685 -1.02136 0.423897
head 4.15239 -0.498971 0.351926
rclavicle -2.78299e-015 -4.53229e-014
rhumerus -44.3021 4.89792 -88.5286
rradius 56.1659
rwrist -3.07561
rhand -20.7914 -4.20042
rfingers 7.12502
rthumb 5.57574 -34.1071
lclavicle -2.78299e-015 -4.53229e-014
lhumerus -44.9929 -6.90982 98.2076
lradius 58.3007
lwrist 0.490884
lhand -17.2208 2.50617
lfingers 7.12502
lthumb 9.02227 32.2932
rfemur -16.7535 -5.19882 21.2774
rtibia 40.9602
rfoot -29.0263 -6.19896
rtoes -38.9996
lfemur -22.0268 -3.93571 -23.3387
ltibia 50.0414
lfoot -27.6296 1.03709
ltoes -12.3607
295
root 1.02645 17.0884 -19.5353 -161.25 0.496022 -181.484
lowerback 4.76935 -0.21204 0.813592
upperback -3.22256 0.00201963 2.23915
thorax -6.0293 0.0616563 1.87016
lowerneck -13.501 -0.911764 -1.5337
upperneck 5.10958 -0.93833 0.371438
head 4.13431 -0.460094 0.330131
rclavicle 9.93923e-016 -1.98785e-014
rhumerus -44.6628 4.64936 -88.2633
rradius 56.5887
rwrist -3.38633
rhand -20.8939 -4.41479
rfingers 7.12502
rthumb 5.47682 -34.324
lclavicle 9.93923e-016 -1.98785e-014
lhumerus -45.4595 -7.04586 98.4094
lradius 59.414
lwrist 0.862574
lhand -17.3317 2.55504
lfingers 7.12502
lthumb 8.91528 32.3467
rfemur -17.3517 -5.409 20.8684
rtibia 42.7562
rfoot -28.5935 -5.33107
rtoes -39.6152
lfemur -21.7277 -4.06806 -23.5994
ltibia 50.1332
lfoot -27.4959 0.860399
ltoes -13.2525
296
root 1.01267 17.0612 -19.6517 -161.184 0.490014 -181.712
lowerback 4.81821 -0.26443 0.704536
upperback -3.20121 -0.08333 2.19335
thorax -6.03214 0.0207446 1.8925
lowerneck -13.4425 -0.835553 -1.47102
upperneck 5.12419 -0.845313 0.320708
head 4.12597 -0.416077 0.309036
rclavicle 1.19271e-015 -1.59028e-015
rhumerus -45.0077 4.34607 -87.9658
rradius 56.957
rwrist -3.71941
rhand -21.0002 -4.68946
rfingers 7.12502
rthumb 5.37419 -34.6013
lclavicle 1.19271e-015 -1.59028e-015
lhumerus -45.9035 -7.19094 98.6153
lradius 60.5305
lwrist 1.20809
lhand -17.4528 2.55405
lfingers 7.12502
lthumb 8.79845 32.3506
rfemur -18.1015 -5.61659 20.4282
rtibia 44.8093
rfoot -27.9898 -4.30481
rtoes -40.2537
lfemur -21.4121 -4.17375 -23.8764
ltibia 50.2074
lfoot -27.3707 0.687581
ltoes -14.1442
297
root 0.998779 17.0328 -19.769 -161.126 0.490774 -181.948
lowerback 4.89037 -0.322652 0.577998
upperback -3.17432 -0.178219 2.14629
thorax -6.04203 -0.0244237 1.92459
lowerneck -13.3929 -0.754111 -1.40313
upperneck 5.1325 -0.745618 0.269029
head 4.11716 -0.368517 0.287162
rclavicle 2.78299e-015 1.35174e-014
rhumerus -45.3457 3.997 -87.643
rradius 57.272
rwrist -4.09153
rhand -21.1444 -4.9529
rfingers 7.12502
rthumb 5.23497 -34.8682
lclavicle 2.78299e-015 1.35174e-014
lhumerus -46.3235 -7.34977 98.8247
lradius 61.6464
lwrist 1.52608
lhand -17.5806 2.49984
lfingers 7.12502
lthumb 8.67507 32.3016
rfemur -19.0037 -5.82142 19.9532
rtibia 47.1123
rfoot -27.1612 -3.07047
rtoes -40.8015
lfemur -21.0737 -4.24924 -24.1697
ltibia 50.2655
lfoot -27.2523 0.512703
ltoes -14.9956
298
root 0.985185 17.0025 -19.8868 -161.081 0.502211 -182.193
lowerback 4.99035 -0.385192 0.427719
upperback -3.13542 -0.281742 2.09621
thorax -6.0546 -0.0733634 1.96812
lowerneck -13.3677 -0.667109 -1.33134
upperneck 5.13524 -0.638625 0.221573
head 4.11135 -0.316788 0.266528
rclavicle 1.25234e-014 -5.1684e-014
rhumerus -45.6647 3.60558 -87.2985
rradius 57.5308
rwrist -4.4853
rhand -21.3139 -5.19415
rfingers 7.12502
rthumb 5.07122 -35.1135
lclavicle 1.25234e-014 -5.1684e-014
lhumerus -46.7044 -7.52597 99.0311
lradius 62.7597
lwrist 1.81166
lhand -17.6976 2.39743
lfingers 7.12502
lthumb 8.56214 32.2038
rfemur -20.0569 -6.01526 19.4399
rtibia 49.6449
rfoot -26.0409 -1.65176
rtoes -41.2474
lfemur -20.7083 -4.28987 -24.4811
ltibia 50.3078
lfoot -27.1459 0.33768
ltoes -15.8076
